<svg width="84" height="84" viewBox="0 0 84 84" fill="none" xmlns="http://www.w3.org/2000/svg">
<path d="M42 7C37.4037 7 32.8525 7.9053 28.6061 9.66422C24.3597 11.4231 20.5013 14.0012 17.2513 17.2513C10.6875 23.815 7 32.7174 7 42C7 51.2826 10.6875 60.185 17.2513 66.7487C20.5013 69.9988 24.3597 72.5769 28.6061 74.3358C32.8525 76.0947 37.4037 77 42 77C51.2826 77 60.185 73.3125 66.7487 66.7487C73.3125 60.185 77 51.2826 77 42C77 37.4037 76.0947 32.8525 74.3358 28.6061C72.5769 24.3597 69.9988 20.5013 66.7487 17.2513C63.4987 14.0012 59.6403 11.4231 55.3939 9.66422C51.1475 7.9053 46.5963 7 42 7ZM24.745 63.98C26.25 60.83 35.42 57.75 42 57.75C48.58 57.75 57.75 60.83 59.255 63.98C54.3519 67.8844 48.2677 70.007 42 70C35.49 70 29.505 67.76 24.745 63.98ZM64.26 58.905C59.255 52.815 47.11 50.75 42 50.75C36.89 50.75 24.745 52.815 19.74 58.905C16.0171 54.0559 13.9994 48.1134 14 42C14 26.565 26.565 14 42 14C57.435 14 70 26.565 70 42C70 48.37 67.83 54.25 64.26 58.905ZM42 21C35.21 21 29.75 26.46 29.75 33.25C29.75 40.04 35.21 45.5 42 45.5C48.79 45.5 54.25 40.04 54.25 33.25C54.25 26.46 48.79 21 42 21ZM42 38.5C40.6076 38.5 39.2723 37.9469 38.2877 36.9623C37.3031 35.9777 36.75 34.6424 36.75 33.25C36.75 31.8576 37.3031 30.5223 38.2877 29.5377C39.2723 28.5531 40.6076 28 42 28C43.3924 28 44.7277 28.5531 45.7123 29.5377C46.6969 30.5223 47.25 31.8576 47.25 33.25C47.25 34.6424 46.6969 35.9777 45.7123 36.9623C44.7277 37.9469 43.3924 38.5 42 38.5Z" fill="#5D626D"/>
<path d="M69.8335 63.167C71.9552 63.167 73.9901 64.0098 75.4904 65.5101C76.9906 67.0104 77.8335 69.0453 77.8335 71.167C77.8335 73.2887 76.9906 75.3236 75.4904 76.8238C73.9901 78.3241 71.9552 79.167 69.8335 79.167C67.7118 79.167 65.6769 78.3241 64.1766 76.8238C62.6764 75.3236 61.8335 73.2887 61.8335 71.167C61.8335 69.0453 62.6764 67.0104 64.1766 65.5101C65.6769 64.0098 67.7118 63.167 69.8335 63.167ZM70.8955 67.479C70.8955 67.2138 70.7901 66.9594 70.6026 66.7719C70.4151 66.5843 70.1607 66.479 69.8955 66.479C69.6303 66.479 69.3759 66.5843 69.1884 66.7719C69.0009 66.9594 68.8955 67.2138 68.8955 67.479V70.229H66.1455C65.8803 70.229 65.6259 70.3343 65.4384 70.5219C65.2509 70.7094 65.1455 70.9638 65.1455 71.229C65.1455 71.4942 65.2509 71.7486 65.4384 71.9361C65.6259 72.1236 65.8803 72.229 66.1455 72.229H68.8955V74.979C68.8955 75.2442 69.0009 75.4986 69.1884 75.6861C69.3759 75.8736 69.6303 75.979 69.8955 75.979C70.1607 75.979 70.4151 75.8736 70.6026 75.6861C70.7901 75.4986 70.8955 75.2442 70.8955 74.979V72.229H73.6455C73.9107 72.229 74.1651 72.1236 74.3526 71.9361C74.5401 71.7486 74.6455 71.4942 74.6455 71.229C74.6455 70.9638 74.5401 70.7094 74.3526 70.5219C74.1651 70.3343 73.9107 70.229 73.6455 70.229H70.8955V67.479Z" fill="#1A1E27"/>
</svg>
